<svg xmlns="http://www.w3.org/2000/svg" viewBox="0 0 439.552 104" role="img" aria-label="RENOVHAUS">
  <g transform="translate(20,20) scale(0.64)">
    <rect x="2" y="2" width="96" height="96" rx="8" fill="none" stroke="#000000" stroke-width="4"/>
    <path d="M18,18 H30 V82 H18 Z M30,18 H70 V30 H30 Z M58,18 H70 V52 H58 Z M30,40 H70 V52 H30 Z M46,52 L58,52 L82,82 L70,82 Z" fill="#000000"/>
  </g>
  <path d="M3.36,0L3.36,-34.56L17.952,-34.56Q18.456,-34.56 19.308,-34.524Q20.16,-34.488 20.832,-34.368Q23.928,-33.888 25.908,-32.328Q27.888,-30.768 28.824,-28.404Q29.76,-26.04 29.76,-23.136Q29.76,-18.792 27.6,-15.72Q26.256,-13.8 24,-12.792L30.24,0L22.848,0L17.16,-11.712L9.888,-11.712L9.888,0ZM9.888,-17.808L17.664,-17.808Q18.168,-17.808 18.768,-17.856Q19.368,-17.904 19.872,-18.048Q21.192,-18.408 21.912,-19.26Q22.632,-20.112 22.908,-21.156Q23.184,-22.2 23.184,-23.136Q23.184,-24.072 22.908,-25.116Q22.632,-26.16 21.912,-27.012Q21.192,-27.864 19.872,-28.224Q19.368,-28.368 18.768,-28.416Q18.168,-28.464 17.664,-28.464L9.888,-28.464Z M37.68,0L37.68,-34.56L60.24,-34.56L60.24,-28.464L44.208,-28.464L44.208,-21.072L57.36,-21.072L57.36,-14.976L44.208,-14.976L44.208,-6.096L60.24,-6.096L60.24,0Z M68.16,0L68.16,-34.56L74.784,-34.56L89.808,-11.52L89.808,-34.56L96.432,-34.56L96.432,0L89.808,0L74.784,-23.04L74.784,0Z M120.144,0.72Q114.96,0.72 111.204,-1.536Q107.448,-3.792 105.42,-7.848Q103.392,-11.904 103.392,-17.28Q103.392,-22.656 105.42,-26.712Q107.448,-30.768 111.204,-33.024Q114.96,-35.28 120.144,-35.28Q125.328,-35.28 129.084,-33.024Q132.84,-30.768 134.868,-26.712Q136.896,-22.656 136.896,-17.28Q136.896,-11.904 134.868,-7.848Q132.84,-3.792 129.084,-1.536Q125.328,0.72 120.144,0.72ZM120.144,-5.424Q123.432,-5.376 125.616,-6.84Q127.8,-8.304 128.892,-10.992Q129.984,-13.68 129.984,-17.28Q129.984,-20.88 128.892,-23.52Q127.8,-26.16 125.616,-27.624Q123.432,-29.088 120.144,-29.136Q116.856,-29.184 114.672,-27.72Q112.488,-26.256 111.396,-23.568Q110.304,-20.88 110.304,-17.28Q110.304,-13.68 111.396,-11.04Q112.488,-8.4 114.672,-6.936Q116.856,-5.472 120.144,-5.424Z M151.296,0L140.736,-34.56L147.456,-34.56L156.096,-6.144L164.88,-34.56L171.6,-34.56L161.04,0Z M177.36,0L177.36,-34.56L183.888,-34.56L183.888,-20.352L199.344,-20.352L199.344,-34.56L205.872,-34.56L205.872,0L199.344,0L199.344,-14.256L183.888,-14.256L183.888,0Z M212.352,0L222.912,-34.56L232.656,-34.56L243.216,0L236.496,0L234.264,-7.2L221.256,-7.2L219.072,0ZM232.392,-13.296L227.712,-28.44L223.104,-13.296Z M263.76,0.72Q259.584,0.72 256.416,-0.972Q253.248,-2.664 251.472,-5.736Q249.696,-8.808 249.696,-12.96L249.696,-34.512L256.32,-34.56L256.32,-13.008Q256.32,-11.304 256.896,-9.912Q257.472,-8.52 258.492,-7.512Q259.512,-6.504 260.868,-5.964Q262.224,-5.424 263.76,-5.424Q265.344,-5.424 266.7,-5.976Q268.056,-6.528 269.064,-7.536Q270.072,-8.544 270.636,-9.936Q271.2,-11.328 271.2,-13.008L271.2,-34.56L277.824,-34.56L277.824,-12.96Q277.824,-8.808 276.048,-5.736Q274.272,-2.664 271.104,-0.972Q267.936,0.72 263.76,0.72Z M299.76,0.72Q295.92,0.72 292.836,-0.636Q289.752,-1.992 287.772,-4.524Q285.792,-7.056 285.264,-10.56L292.08,-11.568Q292.8,-8.592 295.056,-6.984Q297.312,-5.376 300.192,-5.376Q301.8,-5.376 303.312,-5.88Q304.824,-6.384 305.796,-7.368Q306.768,-8.352 306.768,-9.792Q306.768,-10.32 306.612,-10.812Q306.456,-11.304 306.096,-11.736Q305.736,-12.168 305.076,-12.552Q304.416,-12.936 303.408,-13.248L294.432,-15.888Q293.424,-16.176 292.092,-16.704Q290.76,-17.232 289.512,-18.216Q288.264,-19.2 287.436,-20.82Q286.608,-22.44 286.608,-24.912Q286.608,-28.392 288.36,-30.696Q290.112,-33 293.04,-34.128Q295.968,-35.256 299.52,-35.232Q303.096,-35.184 305.904,-34.008Q308.712,-32.832 310.608,-30.588Q312.504,-28.344 313.344,-25.104L306.288,-23.904Q305.904,-25.584 304.872,-26.736Q303.84,-27.888 302.412,-28.488Q300.984,-29.088 299.424,-29.136Q297.888,-29.184 296.532,-28.716Q295.176,-28.248 294.324,-27.36Q293.472,-26.472 293.472,-25.248Q293.472,-24.12 294.168,-23.412Q294.864,-22.704 295.92,-22.272Q296.976,-21.84 298.08,-21.552L304.08,-19.92Q305.424,-19.56 307.056,-18.972Q308.688,-18.384 310.188,-17.34Q311.688,-16.296 312.66,-14.592Q313.632,-12.888 313.632,-10.272Q313.632,-7.488 312.468,-5.412Q311.304,-3.336 309.336,-1.98Q307.368,-0.624 304.884,0.048Q302.4,0.72 299.76,0.72Z" fill="#000000" transform="translate(104,69.28)"/>
</svg>
